<?xml version="1.0" encoding="UTF-8"?>
<svg xmlns="http://www.w3.org/2000/svg" xmlns:xlink="http://www.w3.org/1999/xlink" version="1.1" viewBox="0 0 300 160">
  <!-- Generator: Adobe Illustrator 29.3.0, SVG Export Plug-In . SVG Version: 2.1.0 Build 146)  -->
  <defs>
    <style>
      .st0 {
        stroke: url(#Unbenannter_Verlauf_44);
        stroke-width: .92px;
      }

      .st0, .st1, .st2 {
        fill: none;
        stroke-miterlimit: 10;
      }

      .st1 {
        stroke: url(#Unbenannter_Verlauf_48);
        stroke-width: 1.08px;
      }

      .st3, .st4, .st5, .st6 {
        fill: #fff;
      }

      .st2 {
        stroke: #fff;
        stroke-width: .54px;
      }

      .st4 {
        filter: url(#drop-shadow-2);
        font-size: 19.46px;
      }

      .st4, .st5, .st6 {
        font-family: Optima-Regular, Optima;
      }

      .st5 {
        filter: url(#drop-shadow-1);
        font-size: 28.77px;
      }

      .st7 {
        fill: url(#Unbenannter_Verlauf_52);
      }

      .st6 {
        font-size: 10.77px;
      }
    </style>
    <filter id="drop-shadow-1" filterUnits="userSpaceOnUse">
      <feOffset dx="16.16" dy="0"/>
      <feGaussianBlur result="blur" stdDeviation="2.69"/>
      <feFlood flood-color="#000" flood-opacity=".4"/>
      <feComposite in2="blur" operator="in"/>
      <feComposite in="SourceGraphic"/>
    </filter>
    <filter id="drop-shadow-2" filterUnits="userSpaceOnUse">
      <feOffset dx="16.16" dy="0"/>
      <feGaussianBlur result="blur1" stdDeviation="2.69"/>
      <feFlood flood-color="#000" flood-opacity=".4"/>
      <feComposite in2="blur1" operator="in"/>
      <feComposite in="SourceGraphic"/>
    </filter>
    <linearGradient id="Unbenannter_Verlauf_44" data-name="Unbenannter Verlauf 44" x1="84.61" y1="60.73" x2="96.49" y2="60.73" gradientTransform="translate(-3.35 -7.13) rotate(1.87) scale(1.01 1.12) skewX(4.67)" gradientUnits="userSpaceOnUse">
      <stop offset=".04" stop-color="#666"/>
      <stop offset=".08" stop-color="#777"/>
      <stop offset=".15" stop-color="#919191"/>
      <stop offset=".22" stop-color="#a4a4a4"/>
      <stop offset=".29" stop-color="#afafaf"/>
      <stop offset=".37" stop-color="#b3b3b3"/>
      <stop offset=".67" stop-color="#b0b0b0"/>
      <stop offset=".8" stop-color="#a9a9a9"/>
      <stop offset=".89" stop-color="#9d9d9d"/>
      <stop offset=".96" stop-color="#8c8c8c"/>
      <stop offset="1" stop-color="gray"/>
    </linearGradient>
    <linearGradient id="Unbenannter_Verlauf_52" data-name="Unbenannter Verlauf 52" x1="63.32" y1="100.73" x2="122.43" y2="59.34" gradientUnits="userSpaceOnUse">
      <stop offset=".65" stop-color="#fff"/>
      <stop offset=".69" stop-color="#fff" stop-opacity=".99"/>
      <stop offset=".72" stop-color="#fff" stop-opacity=".94"/>
      <stop offset=".76" stop-color="#fff" stop-opacity=".87"/>
      <stop offset=".79" stop-color="#fff" stop-opacity=".76"/>
      <stop offset=".83" stop-color="#fff" stop-opacity=".63"/>
      <stop offset=".86" stop-color="#fff" stop-opacity=".47"/>
      <stop offset=".89" stop-color="#fff" stop-opacity=".27"/>
      <stop offset=".92" stop-color="#fff" stop-opacity=".05"/>
      <stop offset=".93" stop-color="#fff" stop-opacity="0"/>
    </linearGradient>
    <linearGradient id="Unbenannter_Verlauf_48" data-name="Unbenannter Verlauf 48" x1="106.26" y1="74.66" x2="134.98" y2="74.66" gradientUnits="userSpaceOnUse">
      <stop offset=".04" stop-color="#fff" stop-opacity="0"/>
      <stop offset=".05" stop-color="#fff" stop-opacity=".05"/>
      <stop offset=".09" stop-color="#fff" stop-opacity=".27"/>
      <stop offset=".13" stop-color="#fff" stop-opacity=".47"/>
      <stop offset=".17" stop-color="#fff" stop-opacity=".63"/>
      <stop offset=".21" stop-color="#fff" stop-opacity=".76"/>
      <stop offset=".25" stop-color="#fff" stop-opacity=".87"/>
      <stop offset=".29" stop-color="#fff" stop-opacity=".94"/>
      <stop offset=".33" stop-color="#fff" stop-opacity=".99"/>
      <stop offset=".37" stop-color="#fff"/>
    </linearGradient>
  </defs>
  <g id="Ebene_1">
    <rect y="-1" width="302" height="161"/>
  </g>
  <g id="Ebene_2">
    <g>
      <text class="st5" transform="translate(161.35 78.56)"><tspan x="0" y="0">NAG</tspan></text>
      <text class="st4" transform="translate(162.66 102.45)"><tspan x="0" y="0">Marketing</tspan></text>
      <line class="st0" x1="84.89" y1="45.12" x2="97.58" y2="82.4"/>
      <path class="st7" d="M121.79,59.81c2.67,3.82,4.61,8.15,5.65,12.69,1.05,4.55,1.18,9.29.47,13.91-1.41,9.25-6.71,17.87-14.41,23.34-7.66,5.53-17.65,7.73-26.99,5.99-4.68-.83-9.16-2.66-13.15-5.24-3.99-2.59-7.42-6-10.12-9.89-2.68-3.91-4.61-8.33-5.62-12.96-1.02-4.62-1.12-9.43-.3-14.08.8-4.65,2.55-9.13,5.09-13.1,2.54-3.97,5.88-7.41,9.74-10.07,3.87-2.66,8.27-4.54,12.86-5.48,4.59-.95,9.36-.97,13.94-.06,4.58.9,8.99,2.68,12.89,5.24,3.9,2.55,7.29,5.88,9.95,9.7ZM121.79,59.81c-5.34-7.64-13.73-13.07-22.88-14.7-4.56-.84-9.29-.76-13.81.23-4.52.99-8.83,2.9-12.61,5.56-7.58,5.31-12.81,13.74-14.23,22.84-.73,4.54-.57,9.21.47,13.67,1.04,4.46,2.96,8.71,5.59,12.45,5.28,7.49,13.47,12.78,22.45,14.51,4.48.9,9.14.89,13.63-.03,4.49-.91,8.79-2.73,12.61-5.31,3.8-2.59,7.1-5.94,9.61-9.82,2.51-3.88,4.24-8.28,5.04-12.85,1.67-9.15-.55-18.9-5.86-26.56Z"/>
      <path class="st3" d="M134.97,74.12c3.13,19.07-8.43,38.49-26.4,45.31-17.74,7.18-38.92.83-50.03-14.69-14.49-19.95-8.68-48.41,12.43-61.16,12.14-7.15,28.24-8.51,40.83-1.74-.08.25-14.02,41.51-14.11,41.8,0,0-.38,1.12-.38,1.12l-.38-1.12-12.68-37.18h.76s-19.04,56.03-19.04,56.03c0,0-.76-.26-.76-.26l19.04-56.03.38-1.11.38,1.11s12.68,37.18,12.68,37.18h-.76s14-41.47,14-41.47c0,0,.21.5.2.49-22.1-9.96-48.33-.26-57.31,22.57-7.02,17.44-.72,38.64,14.89,49.2,20.91,14.8,50.6,6.67,61.28-16.52,0,0,1.33-3.15,1.33-3.15.65-1.96,1.46-4.54,1.81-6.58.85-4.47,1.03-9.06.56-13.62,0,0,1.29-.18,1.29-.18h0Z"/>
      <line class="st2" x1="102.14" y1="80.29" x2="123.95" y2="80.29"/>
      <line class="st1" x1="134.98" y1="74.66" x2="106.26" y2="74.66"/>
      <line class="st2" x1="92.45" y1="80.29" x2="76.29" y2="80.29"/>
      <text class="st6" transform="translate(71.79 99.1)"><tspan x="0" y="0">Marketing</tspan></text>
    </g>
  </g>
</svg>