<?xml version="1.0" encoding="UTF-8"?>
<svg xmlns="http://www.w3.org/2000/svg" xmlns:xlink="http://www.w3.org/1999/xlink" version="1.1" viewBox="0 0 160 160">
  <!-- Generator: Adobe Illustrator 29.3.0, SVG Export Plug-In . SVG Version: 2.1.0 Build 146)  -->
  <defs>
    <style>
      .st0 {
        stroke: url(#Unbenannter_Verlauf_44);
      }

      .st0, .st1, .st2, .st3, .st4, .st5, .st6 {
        fill: none;
        stroke-miterlimit: 10;
      }

      .st0, .st4 {
        stroke-width: 1.7px;
      }

      .st1 {
        stroke: #fff;
      }

      .st2 {
        stroke: url(#Unbenannter_Verlauf_48);
      }

      .st2, .st3 {
        stroke-width: 2px;
      }

      .st3 {
        stroke: url(#Unbenannter_Verlauf_25);
      }

      .st4 {
        stroke: url(#Unbenannter_Verlauf_441);
      }

      .st7, .st8 {
        fill: #fff;
      }

      .st5 {
        stroke: url(#Unbenannter_Verlauf_22);
      }

      .st6 {
        stroke: #000;
      }

      .st9 {
        fill: url(#Unbenannter_Verlauf_52);
      }

      .st10 {
        fill: url(#Unbenannter_Verlauf_30);
      }

      .st8, .st11 {
        font-family: Optima-Regular, Optima;
        font-size: 20px;
      }
    </style>
    <linearGradient id="Unbenannter_Verlauf_44" data-name="Unbenannter Verlauf 44" x1="-113.48" y1="49.24" x2="-91.43" y2="49.24" gradientTransform="translate(-1.21 -1.85) rotate(1.87) scale(1.01 1.12) skewX(4.67)" gradientUnits="userSpaceOnUse">
      <stop offset=".04" stop-color="#666"/>
      <stop offset=".08" stop-color="#777"/>
      <stop offset=".15" stop-color="#919191"/>
      <stop offset=".22" stop-color="#a4a4a4"/>
      <stop offset=".29" stop-color="#afafaf"/>
      <stop offset=".37" stop-color="#b3b3b3"/>
      <stop offset=".67" stop-color="#b0b0b0"/>
      <stop offset=".8" stop-color="#a9a9a9"/>
      <stop offset=".89" stop-color="#9d9d9d"/>
      <stop offset=".96" stop-color="#8c8c8c"/>
      <stop offset="1" stop-color="gray"/>
    </linearGradient>
    <linearGradient id="Unbenannter_Verlauf_30" data-name="Unbenannter Verlauf 30" x1="-154.66" y1="118.33" x2="-44.74" y2="41.74" gradientUnits="userSpaceOnUse">
      <stop offset=".67" stop-color="#000"/>
      <stop offset=".97" stop-color="#fff" stop-opacity="0"/>
    </linearGradient>
    <linearGradient id="Unbenannter_Verlauf_22" data-name="Unbenannter Verlauf 22" x1="-82.5" y1="80.5" x2="-42" y2="80.5" gradientUnits="userSpaceOnUse">
      <stop offset=".75" stop-color="#000"/>
      <stop offset=".77" stop-color="#0d0d0d"/>
      <stop offset=".81" stop-color="#303030"/>
      <stop offset=".85" stop-color="#696969"/>
      <stop offset=".91" stop-color="#b7b7b7"/>
      <stop offset=".96" stop-color="#fff"/>
    </linearGradient>
    <linearGradient id="Unbenannter_Verlauf_25" data-name="Unbenannter Verlauf 25" x1="-74.84" y1="70.06" x2="-21.54" y2="70.06" gradientUnits="userSpaceOnUse">
      <stop offset=".04" stop-color="#fff"/>
      <stop offset=".05" stop-color="#f1f1f1"/>
      <stop offset=".09" stop-color="#b9b9b9"/>
      <stop offset=".13" stop-color="#888"/>
      <stop offset=".17" stop-color="#5e5e5e"/>
      <stop offset=".21" stop-color="#3c3c3c"/>
      <stop offset=".25" stop-color="#212121"/>
      <stop offset=".29" stop-color="#0e0e0e"/>
      <stop offset=".33" stop-color="#030303"/>
      <stop offset=".37" stop-color="#000"/>
    </linearGradient>
    <linearGradient id="Unbenannter_Verlauf_441" data-name="Unbenannter Verlauf 44" x1="63.73" y1="43.98" x2="85.77" y2="43.98" xlink:href="#Unbenannter_Verlauf_44"/>
    <linearGradient id="Unbenannter_Verlauf_52" data-name="Unbenannter Verlauf 52" x1="24.76" y1="118.43" x2="134.5" y2="41.59" gradientUnits="userSpaceOnUse">
      <stop offset=".65" stop-color="#fff"/>
      <stop offset=".69" stop-color="#fff" stop-opacity=".99"/>
      <stop offset=".72" stop-color="#fff" stop-opacity=".94"/>
      <stop offset=".76" stop-color="#fff" stop-opacity=".87"/>
      <stop offset=".79" stop-color="#fff" stop-opacity=".76"/>
      <stop offset=".83" stop-color="#fff" stop-opacity=".63"/>
      <stop offset=".86" stop-color="#fff" stop-opacity=".47"/>
      <stop offset=".89" stop-color="#fff" stop-opacity=".27"/>
      <stop offset=".92" stop-color="#fff" stop-opacity=".05"/>
      <stop offset=".93" stop-color="#fff" stop-opacity="0"/>
    </linearGradient>
    <linearGradient id="Unbenannter_Verlauf_48" data-name="Unbenannter Verlauf 48" x1="104.49" y1="70.03" x2="157.8" y2="70.03" gradientUnits="userSpaceOnUse">
      <stop offset=".04" stop-color="#fff" stop-opacity="0"/>
      <stop offset=".05" stop-color="#fff" stop-opacity=".05"/>
      <stop offset=".09" stop-color="#fff" stop-opacity=".27"/>
      <stop offset=".13" stop-color="#fff" stop-opacity=".47"/>
      <stop offset=".17" stop-color="#fff" stop-opacity=".63"/>
      <stop offset=".21" stop-color="#fff" stop-opacity=".76"/>
      <stop offset=".25" stop-color="#fff" stop-opacity=".87"/>
      <stop offset=".29" stop-color="#fff" stop-opacity=".94"/>
      <stop offset=".33" stop-color="#fff" stop-opacity=".99"/>
      <stop offset=".37" stop-color="#fff"/>
    </linearGradient>
  </defs>
  <g id="Ebene_3">
    <rect x="-.02" y="-.3" width="160.01" height="160.4"/>
  </g>
  <g id="Ebene_1">
    <line class="st0" x1="-114.52" y1="15.21" x2="-90.97" y2="84.42"/>
    <path class="st10" d="M-46.02,42.48c4.96,7.08,8.57,15.12,10.51,23.56,1.95,8.44,2.19,17.25.86,25.83-1.35,8.57-4.41,16.89-8.99,24.31-4.56,7.42-10.64,13.93-17.77,19.02-7.12,5.09-15.29,8.76-23.88,10.64-8.58,1.9-17.56,2.06-26.23.49-8.69-1.54-17.02-4.94-24.43-9.72-7.4-4.81-13.78-11.14-18.78-18.38-4.98-7.26-8.57-15.47-10.44-24.05-1.89-8.58-2.07-17.52-.56-26.15,1.5-8.63,4.73-16.96,9.45-24.32,4.71-7.37,10.91-13.76,18.1-18.7,7.19-4.94,15.36-8.43,23.88-10.17,8.52-1.75,17.38-1.78,25.89-.11,17.07,3.27,32.58,13.5,42.4,27.75ZM-46.02,42.48c-4.97-7.08-11.28-13.21-18.55-17.88-7.27-4.66-15.45-7.89-23.93-9.43-8.48-1.55-17.25-1.41-25.65.43-8.4,1.83-16.4,5.38-23.4,10.32-7,4.95-13,11.29-17.51,18.56-4.52,7.26-7.56,15.42-8.91,23.84-1.37,8.42-1.07,17.1.86,25.38,1.92,8.29,5.49,16.17,10.39,23.11,9.78,13.92,25,23.75,41.67,26.95,8.32,1.65,16.97,1.65,25.31-.05,8.33-1.69,16.33-5.07,23.4-9.86,7.06-4.8,13.19-11.02,17.84-18.23,4.65-7.21,7.86-15.37,9.36-23.85,1.55-8.48,1.31-17.28-.56-25.7-1.87-8.43-5.41-16.49-10.32-23.6Z"/>
    <path d="M-21.55,69.06c9.09,56.23-46.2,102.92-100.22,86.35-34-9.63-58.15-43.02-56.57-78.33.69-35.34,27.49-67.34,62.16-74.27,17.17-3.53,36.04-2.27,51.59,6.32-.14.71-26.04,76.9-26.2,77.61,0,0-.7,2.07-.7,2.07l-.71-2.07-23.54-69.02h1.41s-35.35,104.03-35.35,104.03l-1.41-.48L-115.74,17.24l.7-2.06.7,2.06,23.54,69.02h-1.41S-66.2,9.26-66.2,9.26l.38.9c-7.88-3.26-16.05-5.83-24.54-6.76-44.81-5.44-85.41,28.42-87.15,73.7-1.83,34.92,22.3,68.21,56.03,77.34,33.17,9.8,71.1-5.87,87.77-36.08,8.48-14.72,11.73-32.12,9.78-48.98l2.39-.33h0Z"/>
    <line class="st5" x1="-82.5" y1="80.5" x2="-42" y2="80.5"/>
    <line class="st3" x1="-21.54" y1="70.06" x2="-74.84" y2="70.06"/>
    <line class="st6" x1="-100.5" y1="80.5" x2="-130.5" y2="80.5"/>
  </g>
  <g id="Schrift">
    <text class="st11" transform="translate(-138.84 115.43)"><tspan x="0" y="0">Marketing</tspan></text>
    <line class="st4" x1="64.81" y1="15.18" x2="88.37" y2="84.4"/>
    <path class="st9" d="M133.31,42.45c4.96,7.08,8.57,15.12,10.51,23.56,1.95,8.44,2.19,17.25.86,25.83-1.35,8.57-4.41,16.89-8.99,24.31-4.56,7.42-10.64,13.93-17.77,19.02-7.12,5.09-15.29,8.76-23.88,10.64-8.58,1.9-17.56,2.06-26.23.49-8.69-1.54-17.02-4.94-24.43-9.72-7.4-4.81-13.78-11.14-18.78-18.38-4.98-7.26-8.57-15.47-10.44-24.05-1.89-8.58-2.07-17.52-.56-26.15,1.5-8.63,4.73-16.96,9.45-24.32,4.71-7.37,10.91-13.76,18.1-18.7,7.19-4.94,15.36-8.43,23.88-10.17,8.52-1.75,17.38-1.78,25.89-.11,17.07,3.27,32.58,13.5,42.4,27.75ZM133.31,42.45c-4.97-7.08-11.28-13.21-18.55-17.88-7.27-4.66-15.45-7.89-23.93-9.43-8.48-1.55-17.25-1.41-25.65.43-8.4,1.83-16.4,5.38-23.4,10.32-7,4.95-13,11.29-17.51,18.56-4.52,7.26-7.56,15.42-8.91,23.84-1.37,8.42-1.07,17.1.86,25.38,1.92,8.29,5.49,16.17,10.39,23.11,9.78,13.92,25,23.75,41.67,26.95,8.32,1.65,16.97,1.65,25.31-.05,8.33-1.69,16.33-5.07,23.4-9.86,7.06-4.8,13.19-11.02,17.84-18.23,4.65-7.21,7.86-15.37,9.36-23.85,1.55-8.48,1.31-17.28-.56-25.7-1.87-8.43-5.41-16.49-10.32-23.6Z"/>
    <path class="st7" d="M157.78,69.03c9.09,56.23-46.2,102.92-100.22,86.35C23.56,145.76-.6,112.37.99,77.06,1.68,41.71,28.48,9.72,63.15,2.79c17.17-3.53,36.04-2.27,51.59,6.32-.14.71-26.04,76.9-26.2,77.61,0,0-.7,2.07-.7,2.07l-.71-2.07L63.59,17.69h1.41S29.65,121.72,29.65,121.72l-1.41-.48L63.59,17.21l.7-2.06.7,2.06,23.54,69.02h-1.41S113.13,9.24,113.13,9.24l.38.9c-7.88-3.26-16.05-5.83-24.54-6.76C44.15-2.05,3.55,31.8,1.8,77.09-.03,112.01,24.1,145.3,57.84,154.43c33.17,9.8,71.1-5.87,87.77-36.08,8.48-14.72,11.73-32.12,9.78-48.98l2.39-.33h0Z"/>
    <line class="st1" x1="96.83" y1="80.47" x2="137.33" y2="80.47"/>
    <line class="st2" x1="157.8" y1="70.03" x2="104.49" y2="70.03"/>
    <line class="st1" x1="78.83" y1="80.47" x2="48.83" y2="80.47"/>
    <text class="st8" transform="translate(40.49 115.41)"><tspan x="0" y="0">Marketing</tspan></text>
  </g>
</svg>